<?xml version="1.0" encoding="UTF-8"?>
<svg version="1.1" xmlns="http://www.w3.org/2000/svg" width="194" height="194" viewBox="0 0 194 194">
<path d="M0 0 C4.74296827 1.72618233 8.01041544 4.3949069 10.5625 8.75 C12.49172902 13.29440613 12.36700603 17.2981958 11 22 C8.26401174 27.09459883 5.4996963 30.1667679 0 32 C-6.08669194 32.84037167 -10.32106603 31.99214671 -15.33984375 28.41015625 C-19.58770706 24.80197118 -20.68865223 20.73461551 -21.12890625 15.34375 C-20.83249735 9.95449723 -18.23800066 6.14957204 -14.375 2.5625 C-9.62996991 -0.55923032 -5.60103572 -0.70422379 0 0 Z " fill="#FFFFFF" transform="translate(102,82)"/>
<path d="M0 0 C3.22941102 1.62490365 4.93624361 3.06840323 7.04296875 6.05859375 C8.32691927 9.98597181 8.84746494 13.22353781 8.10546875 17.30859375 C6.01591797 21.26381486 3.88256303 23.93597857 0.10546875 26.30859375 C-4.80756065 27.20850507 -8.85639834 26.81822264 -13.33203125 24.62109375 C-17.32600589 21.01677517 -18.72145662 18.84154047 -19.33203125 13.43359375 C-19.129106 8.76631308 -17.68124898 6.04866229 -14.89453125 2.30859375 C-10.19956314 -0.92571761 -5.49478612 -2.0053137 0 0 Z " fill="#FFFFFF" transform="translate(77.89453125,60.69140625)"/>
<path d="M0 0 C4.91624028 2.36707866 7.18602527 4.86040493 9 10 C9.52881413 15.02373423 9.13308361 18.00261746 6 22 C1.61744677 25.84809552 -0.95971239 27.3675314 -6.90234375 27.28125 C-11.33067527 26.68750723 -14.06627782 24.08934255 -16.875 20.8125 C-18.48047982 16.79880044 -18.67667379 13.26304489 -18 9 C-14.05325674 1.10651349 -8.50578062 -1.33512253 0 0 Z " fill="#FFFFFF" transform="translate(125,59)"/>
<path d="M0 0 C3.71850041 2.7201838 5.23632205 5.66480972 6.01953125 10.05078125 C6.28921727 14.33306834 5.41589516 17.4757401 2.765625 20.8671875 C-0.41865837 24.02925494 -2.94718543 25.49380183 -7.4765625 25.66015625 C-12.66141576 25.27283275 -15.44910242 23.50011633 -19.1015625 19.84765625 C-21.31570427 16.36829062 -21.8515625 14.2322545 -21.8515625 10.09765625 C-20.32044731 5.4529884 -18.25464739 1.51225119 -13.8515625 -0.90234375 C-9.20889814 -2.44989854 -4.44878631 -2.1680794 0 0 Z " fill="#FFFFFF" transform="translate(127.8515625,111.90234375)"/>
<path d="M0 0 C3.21291333 1.81385479 5.44264691 4.12762124 7.4375 7.25 C8.52882063 12.5853453 8.0588954 17.28385918 5.1875 21.9375 C0.91560271 25.96528888 -2.7874666 26.49670049 -8.5234375 26.38671875 C-13.23900872 25.65037561 -15.54157933 22.92246361 -18.375 19.1875 C-19.6823908 14.61163222 -19.67633152 10.56624142 -17.8125 6.25 C-12.81205874 0.04255568 -7.80811782 -2.15498148 0 0 Z " fill="#FFFFFF" transform="translate(76,107)"/>
<path d="M0 0 C2.69105198 2.17574416 4.45532928 3.91065856 6 7 C6.3751455 11.97067782 6.15878799 15.05151502 3 19 C-0.42919572 21.57189679 -3.83939486 21.502142 -8 21 C-10.97239241 19.21523759 -13.42604027 17.14791945 -15 14 C-15.3751455 9.02932218 -15.15878799 5.94848498 -12 2 C-8.56908435 -0.66848995 -4.16415802 -0.83448405 0 0 Z " fill="#FFFFFF" transform="translate(57,88)"/>
<path d="M0 0 C3.2561101 1.89446406 5.3487671 3.30400843 6.73046875 6.90234375 C7.50486623 10.89700797 7.16508779 12.6816164 5.25 16.375 C2.47597546 19.61136197 0.96270189 20.89101488 -3.3125 21.375 C-7.7523323 20.92349163 -9.7005081 19.99256242 -13 17 C-15.01536061 12.7274355 -15.23834919 10.7944973 -13.875 6.25 C-10.48115575 0.36733663 -6.83407546 -1.36419165 0 0 Z " fill="#FFFFFF" transform="translate(101,45)"/>
<path d="M0 0 C3.56943833 2.58214687 4.7688666 4.20547895 6 8.4375 C6 12.53094236 5.22004022 14.59065251 3 18 C-1.01858595 20.6790573 -4.27641721 20.69610694 -9 20 C-11.87029869 18.20606332 -13.49131638 17.01736724 -15 14 C-15.42071592 10.94079426 -15.48514117 8.0532254 -15 5 C-10.53129403 -0.64468123 -6.94459425 -1.91575014 0 0 Z " fill="#FFFFFF" transform="translate(148,134)"/>
<path d="M0 0 C2.75569447 2.18159145 4.43588747 3.87177494 6 7 C6.44408691 10.9079648 6.13704844 12.74548146 4.25 16.25 C0.97142857 20.25714286 0.97142857 20.25714286 -2 21 C-7.16431564 21 -9.03709795 20.82247883 -13 17.4375 C-15.60444974 12.96110202 -15.72939554 11.10576877 -15 6 C-11.10085179 -0.10866553 -6.96919421 -1.10736765 0 0 Z " fill="#FFFFFF" transform="translate(55,133)"/>
<path d="M0 0 C3.5108029 0.06314394 4.5251691 0.49873475 7.75 2.375 C10.49001067 5.58281736 11.32130732 7.26363569 11.5546875 11.37890625 C11.14237 14.77720051 9.49241919 16.83176095 7.3125 19.375 C3.58670911 21.85886059 1.72538598 21.7554212 -2.6875 21.375 C-6.2261994 19.72360695 -7.49820153 18.65894771 -9.6875 15.375 C-10.23272803 12.31024457 -10.23592924 9.43975161 -9.6875 6.375 C-7.25 3.375 -7.25 3.375 -4.6875 1.375 C-3.6875 0.375 -3.6875 0.375 0 0 Z " fill="#FFFFFF" transform="translate(138.6875,87.625)"/>
<path d="M0 0 C3.21093673 2.44310404 4.69865985 4.11481331 6 7.9375 C6 11.77923636 5.0718767 13.78501891 3 17 C0.23277523 19.67498395 -2.14269089 20.82059027 -6 21 C-10.5937722 19.7327525 -12.48601502 18.80991573 -15.0625 14.75 C-16.17819934 10.28720264 -15.82005466 8.19403901 -14 4 C-9.83081594 -1.11061271 -6.31208281 -1.5236062 0 0 Z " fill="#FFFFFF" transform="translate(149,41)"/>
<path d="M0 0 C2.65404738 2.51436068 3.80295398 4.43349268 5 7.875 C5 12.11170377 3.68463384 14.7613941 1 18 C-2.06986346 19.99126279 -3.82856578 20.00306133 -7.5 19.9375 C-11.75107809 18.79881837 -13.35945923 17.49483337 -16 14 C-17.28544691 10.2239997 -17.20930782 8.56182624 -15.8125 4.8125 C-11.58550744 -1.74662639 -7.20438805 -2.780641 0 0 Z " fill="#FFFFFF" transform="translate(57,41)"/>
<path d="M0 0 C3.94352504 0.85939737 5.56791635 2.43142412 8.22265625 5.484375 C9.60107305 9.29529203 9.45425662 10.89379406 7.97265625 14.671875 C4.57890311 20.12612111 4.57890311 20.12612111 -0.08984375 21.359375 C-4.3921067 21.50521442 -6.27076942 20.954916 -9.77734375 18.484375 C-12.18149844 15.07202641 -12.77734375 13.10247809 -12.77734375 8.921875 C-10.75584293 1.97296593 -6.98652101 -0.41989108 0 0 Z " fill="#FFFFFF" transform="translate(95.77734375,131.515625)"/>
<path d="M0 0 C3.4375 0.5625 3.4375 0.5625 5.875 2.125 C8.06771887 5.54564143 8.06757693 7.57201279 7.4375 11.5625 C4.99151113 14.94371991 3.54453441 16.33186783 -0.5625 17.1875 C-4.6368356 16.33868008 -6.10655875 14.88524404 -8.5625 11.5625 C-9.1875 8.5625 -9.1875 8.5625 -8.5625 5.5625 C-5.92388121 1.88442532 -4.50182231 0.71081405 0 0 Z " fill="#FFFFFF" transform="translate(34.5625,62.4375)"/>
<path d="M0 0 C4.0743356 0.84881992 5.54405875 2.30225596 8 5.625 C8.625 8.625 8.625 8.625 8 11.625 C5.9375 14.5 5.9375 14.5 3 16.625 C-0.99048721 17.25507693 -3.01685857 17.25521887 -6.4375 15.0625 C-8.63021887 11.64185857 -8.63007693 9.61548721 -8 5.625 C-5.55401113 2.24378009 -4.10703441 0.85563217 0 0 Z " fill="#FFFFFF" transform="translate(72,26.375)"/>
<path d="M0 0 C3.74225404 1.1566967 5.28964665 1.79776291 7.4375 5.0625 C8.00038002 9.00266013 8.04146028 11.12032196 5.875 14.5 C2.45435857 16.69271887 0.42798721 16.69257693 -3.5625 16.0625 C-6.94371991 13.61651113 -8.33186783 12.16953441 -9.1875 8.0625 C-8.06449489 2.67207546 -5.55537361 0.09746269 0 0 Z " fill="#FFFFFF" transform="translate(29.5625,155.9375)"/>
<path d="M0 0 C2.4375 2.1875 2.4375 2.1875 4 5 C4 8.68919016 3.46363487 10.40846586 1.1875 13.3125 C-2.18912797 15.91732729 -2.18912797 15.91732729 -5 16 C-8.86412166 14.68619863 -10.56188274 13.78861107 -12.5625 10.1875 C-13.12385007 6.09766378 -12.30456777 4.38003274 -10 1 C-6.69106327 -1.62432913 -3.92290841 -1.22590888 0 0 Z " fill="#FFFFFF" transform="translate(163,116)"/>
<path d="M0 0 C4.0743356 0.84881992 5.54405875 2.30225596 8 5.625 C8.625 8.625 8.625 8.625 8 11.625 C5.54405875 14.94774404 4.0743356 16.40118008 0 17.25 C-4.0743356 16.40118008 -5.54405875 14.94774404 -8 11.625 C-8.625 8.625 -8.625 8.625 -8 5.625 C-5.54405875 2.30225596 -4.0743356 0.84881992 0 0 Z " fill="#FFFFFF" transform="translate(34,113.375)"/>
<path d="M0 0 C3 2.0625 3 2.0625 5 5 C5.06975943 8.97628774 4.53947295 11.17004162 2.375 14.5 C0 16 0 16 -3.5 16 C-7.31656581 14.90955263 -8.82567969 14.30496687 -11 11 C-11.56288002 7.05983987 -11.60396028 4.94217804 -9.4375 1.5625 C-6.01685857 -0.63021887 -3.99048721 -0.63007693 0 0 Z " fill="#FFFFFF" transform="translate(162,64)"/>
<path d="M0 0 C3.4375 1.9375 3.4375 1.9375 5.0625 4.75 C5.54151177 8.82160006 4.72863337 10.57717106 2.4375 13.9375 C-0.08710691 15.93977445 -1.32296431 15.94748065 -4.5625 15.8125 C-8.09617962 14.78184344 -9.53401122 14.02080295 -11.5625 10.9375 C-11.5625 6.91745113 -11.19373872 4.73706905 -8.6875 1.5625 C-5.32446995 -1.00922886 -4.11569776 -1.2274888 0 0 Z " fill="#FFFFFF" transform="translate(33.5625,21.0625)"/>
<path d="M0 0 C2.4375 1.5625 2.4375 1.5625 4 4 C4.5625 7.4375 4.5625 7.4375 4 11 C1.52506641 14.42123173 0.11736219 15.79477021 -4.0625 16.5625 C-7.71255579 15.86355315 -8.85564611 15.01797955 -11 12 C-12.17590974 8.31548282 -12.33481338 6.71745725 -10.6875 3.1875 C-7.66275934 -0.73346012 -4.76575755 -0.41084117 0 0 Z " fill="#FFFFFF" transform="translate(168,157)"/>
<path d="M0 0 C2.562964 2.23225897 2.93752331 3.58051369 3.4375 6.9375 C2.88008526 10.83940315 1.97118368 12.40973731 -1 15 C-5.44071826 15.80740332 -7.26790056 15.50331836 -11 12.9375 C-13 10 -13 10 -13 6.375 C-12.05456241 3.18414813 -11.63628553 1.89812558 -9 0 C-5.8168485 -1.59157575 -3.38676935 -0.77242108 0 0 Z " fill="#FFFFFF" transform="translate(127,153)"/>
<path d="M0 0 C3.5625 1.3125 3.5625 1.3125 5.5625 3 C7.04149679 6.42018008 6.46752496 8.75704479 5.5625 12.3125 C3.99348366 14.66602451 2.8891259 15.18891182 0.25 16.1875 C-3.36506814 16.3556427 -5.39013032 15.18247685 -8.4375 13.3125 C-9.98336876 10.22076248 -9.73109521 7.71820448 -9.4375 4.3125 C-6.46726934 0.55020783 -4.79994532 -0.95998906 0 0 Z " fill="#FFFFFF" transform="translate(72.4375,150.6875)"/>
<path d="M0 0 C3.87857697 0.143651 6.2584425 0.43407454 9.375 2.8125 C11.91872792 6.23674912 11.91872792 6.23674912 12 9 C9.66666667 14.66666667 9.66666667 14.66666667 7 16 C0.80703883 16.57342233 0.80703883 16.57342233 -2.375 14.3125 C-4.21921807 11.68803583 -4.92169023 10.21070053 -5 7 C-3.61442213 4.16286436 -2.22998296 2.22998296 0 0 Z " fill="#FFFFFF" transform="translate(162,22)"/>
<path d="M0 0 C2.55078958 2.22165544 2.93332671 3.60829443 3.5 6.9375 C3 10 3 10 0.9375 12.9375 C-2 15 -2 15 -5.625 15 C-10.3943662 13.58685446 -10.3943662 13.58685446 -12 11 C-12.85736616 7.90029156 -13.25878885 5.84694533 -12.3125 2.75 C-8.92441924 -1.76744101 -5.19716644 -1.32291509 0 0 Z " fill="#FFFFFF" transform="translate(128,27)"/>
<path d="M0 0 C2.5625 0.3125 2.5625 0.3125 4.375 1.5 C5.98775784 3.96157776 5.9959014 5.42315736 5.5625 8.3125 C4.4375 10.1875 4.4375 10.1875 2.5625 11.3125 C-0.5 11.1875 -0.5 11.1875 -3.4375 10.3125 C-5.4375 7.3125 -5.4375 7.3125 -5.1875 4.75 C-4.19253762 1.51637226 -3.41216263 0.43745675 0 0 Z " fill="#FFFFFF" transform="translate(175.4375,47.6875)"/>
<path d="M0 0 C1.875 1.125 1.875 1.125 3 3 C2.875 6.0625 2.875 6.0625 2 9 C-1 11 -1 11 -3.5625 10.75 C-6 10 -6 10 -8 8 C-8.36487512 5.15397406 -8.40199375 3.6135694 -6.8125 1.1875 C-4.35092224 -0.42525784 -2.88934264 -0.4334014 0 0 Z " fill="#FFFFFF" transform="translate(56,13)"/>
<path d="M0 0 C2.4375 1.4375 2.4375 1.4375 3.4375 4.375 C3.4375 7.4375 3.4375 7.4375 2.4375 9.375 C-0.67254763 11.02721281 -3.21977278 10.13127357 -6.5625 9.4375 C-7.25 6.625 -7.25 6.625 -7.5625 3.4375 C-5.43669813 0.50186885 -3.62310265 -0.79531522 0 0 Z " fill="#FFFFFF" transform="translate(144.5625,12.5625)"/>
<path d="M0 0 C1.875 1.75 1.875 1.75 3 4 C2.72330471 6.35190998 2.05656463 7.88687074 1 10 C-0.75 10.8125 -0.75 10.8125 -3 11 C-5.75 9.5625 -5.75 9.5625 -8 8 C-7.74438677 5.6568787 -7.40729228 3.32156597 -7 1 C-4.4254716 -0.2872642 -2.85291355 -0.34791629 0 0 Z " fill="#FFFFFF" transform="translate(20,136)"/>
<path d="M0 0 C1.32561852 6.38707103 1.32561852 6.38707103 -0.0625 9 C-2.94067863 10.48551155 -4.9452585 9.79688909 -8 9 C-9 8 -9 8 -9.25 5.125 C-9 2 -9 2 -7.875 0.0625 C-5.07329973 -1.52513015 -3.03014356 -0.74070176 0 0 Z " fill="#FFFFFF" transform="translate(22,47)"/>
<path d="M0 0 C2.8125 1.4375 2.8125 1.4375 3.875 3.25 C3.78860071 6.2739753 2.51091002 7.99178957 0.8125 10.4375 C-1.4975 10.1075 -3.8075 9.7775 -6.1875 9.4375 C-6.5175 7.1275 -6.8475 4.8175 -7.1875 2.4375 C-4.55650143 -0.19349857 -3.76399788 -0.66423492 0 0 Z " fill="#FFFFFF" transform="translate(143.1875,171.5625)"/>
<path d="M0 0 C3.0625 0.4375 3.0625 0.4375 4.9375 2.9375 C5.30875 3.7625 5.68 4.5875 6.0625 5.4375 C4.9375 7.9375 4.9375 7.9375 3.0625 10.4375 C0 10.875 0 10.875 -2.9375 10.4375 C-4.9375 8.4375 -4.9375 8.4375 -5.1875 5.4375 C-4.84652809 1.34583708 -4.04354945 0.60223077 0 0 Z " fill="#FFFFFF" transform="translate(174.9375,136.5625)"/>
<path d="M0 0 C3.125 0.25 3.125 0.25 5.0625 1.4375 C6.125 3.25 6.125 3.25 5.9375 5.8125 C5.125 8.25 5.125 8.25 3.125 10.25 C0.6875 10.625 0.6875 10.625 -1.875 10.25 C-3.75 8.5625 -3.75 8.5625 -4.875 6.25 C-4.32861876 0.37640163 -4.32861876 0.37640163 0 0 Z " fill="#FFFFFF" transform="translate(181.875,176.75)"/>
<path d="M0 0 C3 0.25 3 0.25 5 2.25 C5.25 5.25 5.25 5.25 5 8.25 C3 10.25 3 10.25 0 10.5 C-3 10.25 -3 10.25 -5 8.25 C-5.25 5.25 -5.25 5.25 -5 2.25 C-3 0.25 -3 0.25 0 0 Z " fill="#FFFFFF" transform="translate(52,169.75)"/>
<path d="M0 0 C2.3125 1.25 2.3125 1.25 3.3125 2.25 C3.02519945 4.58944736 2.69313221 6.9239143 2.3125 9.25 C-0.5 9.875 -0.5 9.875 -3.6875 10.25 C-4.6775 9.59 -5.6675 8.93 -6.6875 8.25 C-7.125 5.3125 -7.125 5.3125 -6.6875 2.25 C-4.35550923 -0.51384091 -3.52665203 -0.98418196 0 0 Z " fill="#FFFFFF" transform="translate(185.6875,8.75)"/>
<path d="M0 0 C2.625 0.25 2.625 0.25 4.5 1.375 C5.625 3.25 5.625 3.25 5.375 6.375 C4.625 9.25 4.625 9.25 3.625 10.25 C0.75 10.5625 0.75 10.5625 -2.375 10.25 C-4.375 8.5625 -4.375 8.5625 -5.375 6.25 C-3.74069987 0.39375788 -3.74069987 0.39375788 0 0 Z " fill="#FFFFFF" transform="translate(13.375,4.75)"/>
<path d="M0 0 C1 1 1 1 1.3125 3.875 C1 7 1 7 -0.6875 9 C-3 10 -3 10 -5.6875 9.25 C-8 8 -8 8 -9 7 C-9.3125 4.625 -9.3125 4.625 -9 2 C-6.06423382 -1.26196243 -4.07104718 -1.32033963 0 0 Z " fill="#FFFFFF" transform="translate(16,178)"/>
<path d="M0 0 C2.625 0.6875 2.625 0.6875 5 2 C6 5 6 5 5.0625 7.1875 C4.5365625 8.0846875 4.5365625 8.0846875 4 9 C1.69 8.67 -0.62 8.34 -3 8 C-3.1875 5.125 -3.1875 5.125 -3 2 C-2.01 1.34 -1.02 0.68 0 0 Z " fill="#FFFFFF" transform="translate(156,185)"/>
<path d="M0 0 C3.125 0.375 3.125 0.375 6 1 C6.6875 2.75 6.6875 2.75 7 5 C5.5625 7.25 5.5625 7.25 4 9 C-0.875 8.125 -0.875 8.125 -2 7 C-2.1875 4.5625 -2.1875 4.5625 -2 2 C-1.34 1.34 -0.68 0.68 0 0 Z " fill="#FFFFFF" transform="translate(3,31)"/>
<path d="M0 0 C1.65 0.99 3.3 1.98 5 3 C4.125 7.875 4.125 7.875 3 9 C0.5625 9.1875 0.5625 9.1875 -2 9 C-2.66 8.34 -3.32 7.68 -4 7 C-3.8125 4.5 -3.8125 4.5 -3 2 C-2.01 1.34 -1.02 0.68 0 0 Z " fill="#FFFFFF" transform="translate(35,184)"/>
<path d="M0 0 C4.875 0.875 4.875 0.875 6 2 C6.1875 4.4375 6.1875 4.4375 6 7 C5.34 7.66 4.68 8.32 4 9 C1.5 8.875 1.5 8.875 -1 8 C-2.3125 5.9375 -2.3125 5.9375 -3 4 C-2.01 2.68 -1.02 1.36 0 0 Z " fill="#FFFFFF" transform="translate(187,154)"/>
<path d="M0 0 C1.4540625 0.0309375 1.4540625 0.0309375 2.9375 0.0625 C4.0625 2.375 4.0625 2.375 4.9375 5.0625 C3.9475 6.5475 3.9475 6.5475 2.9375 8.0625 C0.6275 7.7325 -1.6825 7.4025 -4.0625 7.0625 C-4.10504356 5.06295254 -4.10330783 3.06208364 -4.0625 1.0625 C-3.0625 0.0625 -3.0625 0.0625 0 0 Z " fill="#FFFFFF" transform="translate(4.0625,152.9375)"/>
<path d="M0 0 C2.5625 0.1875 2.5625 0.1875 4.5625 2.1875 C4.1875 5.3125 4.1875 5.3125 3.5625 8.1875 C1.8125 8.875 1.8125 8.875 -0.4375 9.1875 C-2.6875 7.75 -2.6875 7.75 -4.4375 6.1875 C-3.3735 0.2595 -3.3735 0.2595 0 0 Z " fill="#FFFFFF" transform="translate(158.4375,0.8125)"/>
<path d="M0 0 C0.78375 0.04125 1.5675 0.0825 2.375 0.125 C3.035 1.775 3.695 3.425 4.375 5.125 C2.625 7.1875 2.625 7.1875 0.375 9.125 C-1.875 8.875 -1.875 8.875 -3.625 8.125 C-4.25 5.25 -4.25 5.25 -4.625 2.125 C-2.625 0.125 -2.625 0.125 0 0 Z " fill="#FFFFFF" transform="translate(37.625,-0.125)"/>
<path d="M0 0 C1 1 1 1 1.0625 3.5625 C1.041875 4.366875 1.02125 5.17125 1 6 C-1.3125 7.125 -1.3125 7.125 -4 8 C-4.99 7.34 -5.98 6.68 -7 6 C-7.1875 2.875 -7.1875 2.875 -7 0 C-4.31633121 -1.3418344 -2.84719317 -0.73004953 0 0 Z " fill="#FFFFFF" transform="translate(193,34)"/>
</svg>
